<svg version="1.2" xmlns="http://www.w3.org/2000/svg" viewBox="0 0 794 141" width="794" height="141"><style>.a{fill:#fff}.b{display:none;fill:none}</style><path class="a" d="m43 53.8q0-0.8 0.1-2.3 0.1-1.6 0.1-2.1 0-0.3-0.1-1.6-0.1-1.3-0.1-2.4 0-4.5 0.9-4.5 0.3 0 0.6 0.1 9.1 0 26.9-0.3 17.8-0.2 26.7-0.2 2.2 0 2.8 0.4 0.6 0.4 0.6 1.5v1.2q0 2.3 0 6.7 0.1 4.4 0.1 6.7 0 2.2-1.3 2.2-2.4 0-7.2 0-4.8-0.1-7.3-0.1v46.4q-0.3 1.3-1.5 1.4-1.5 0-4.4 0-2.9-0.1-4.4-0.1-0.1 0-0.2 0.1-1.9 0-5.3 0-3.5-0.1-5.2-0.1h-2.6q-0.9 0.1-2.5 0.1l-1.8-2q0-6.6 0.5-19.6 0.4-13.1 0.4-19.6 0-0.3 0-1 0-0.7 0-1.2 0-0.4-0.1-1.1-0.1-0.6-0.2-1-0.2-0.4-0.4-0.8-0.2-0.4-0.6-0.6-0.3-0.2-0.9-0.2h-12.4q-1.2-0.4-1.2-6zm84.9 50.3h-23.8v-57q0-0.3 0.7-0.6 0.6-0.3 0.7-0.4h23.4v56.4q-0.2 0.9-0.4 1.3-0.2 0.3-0.6 0.3zm37 1.3q-7.3 0-13.1-2.5-5.7-2.4-9.4-6.8-3.7-4.3-5.7-10.1-1.9-5.8-1.9-12.6v-0.6q0.1-0.3 0.2-1.5 0.1-1.2 0.1-1.6 0-0.3 0.1-1.4 0.2-1 0.3-1.5 0.1-0.5 0.2-1.4 0.2-0.9 0.4-1.5 0.1-0.6 0.4-1.4 0.3-0.8 0.6-1.6 0.3-0.7 0.7-1.5v0.1q2-4.2 5-7.2 3.1-3 6.7-4.7 3.6-1.7 7.5-2.4 3.8-0.8 8.1-0.8 5.3 0 9.7 1.1 4.3 1 7.2 2.8 2.9 1.8 4.9 4.3 2 2.6 3.1 5.3 1 2.6 1.5 5.8v3.7q-0.2 0.6-0.7 0.9-0.5 0.4-1.1 0.4-0.6 0.1-1.7 0.1h-18.6v-3.7q-0.2-1.5-1.3-2.7-1-1.3-2.5-1.3-1.4 0-2.4 0.6-1 0.6-1.6 1.5-0.6 0.9-1 2.2-0.3 1.2-0.4 2.6-0.1 1.4-0.2 2.8-0.1 1.4 0 2.6 0 0.9 0 1.3v4.8q0 1.1 0.1 2.1 0.1 1.1 0.5 2.7 0.4 1.6 1.5 2.6 1 1 2.6 1 1.6 0 2.5-1.4 0.8-1.4 1.3-3.4 0.5-1.9 1.2-2.6 1.8 0 5.2 0 3.5 0.1 5.3 0.1 1.2 0 3.6-0.1 2.4 0 3.6 0h3.2q1.4 0 1.5 1.7v1.7q-0.9 8.6-6.3 13.9-5.5 5.3-13.6 6.7v0.3q-2.9 0.6-7.3 0.6zm51.9-1.2h-18.3q-0.8-1.3-1.1-1.9v-56.9h19.2q0.2 0 0.7-0.1 0.6 0 0.9 0 0.3 0.1 0.8 0.1 0.6 0 0.9 0.2 0.4 0.1 0.8 0.3 0.3 0.2 0.6 0.5 0.2 0.4 0.3 0.8v19.2q1.4-2.8 4-8.2 2.6-5.4 3.8-7.8l2.1-4.6 4.2-0.1q0.8 0 2.6 0.1 1.8 0.1 2.6 0.1h3.3q0.3 0 1-0.1 0.7 0 1 0h2.5q0.2 0 0.6-0.1 7 0 7 1.1 0 0.6-0.7 1.6-2 3.2-6.8 11.6-4.7 8.4-7.6 12.6l17 29.2q0 0.1 0 0.3 0 0.3 0 0.4 0 0.1 0 0.3-0.1 0.2-0.1 0.3-0.1 0.1-0.1 0.2-0.1 0.2-0.2 0.3-0.1 0.1-0.2 0.2-4.1-0.2-12.2-0.2-1.1 0-3.3 0-2.3 0-3.4 0h-5.9v-1.2q-0.7-1.1-3-4.6-2.3-3.4-3.3-5.3l-4.9-9.3v19.2q-0.6 1.8-4.8 1.8zm44.3-1.7v-52.8q0-2.6 0.2-3 0.4-0.6 1.3-0.6h1q0.7 0 1 0.1h2.3q4.3 0 13.2-0.3 8.9-0.2 13.3-0.2h11.6q1.1 0.1 1.1 1.1v14.5q0 0.3-0.1 0.5-0.1 0.2-0.2 0.2-0.1 0.1-0.4 0.3-0.4 0.3-0.5 0.4h-20.1v5.4h1.9q2.5 0 7.6-0.2 5.2-0.2 8-0.2 1.2 0 1.6 0.5 0.5 0.5 0.5 1.4 0 0.2-0.1 0.7-0.1 0.5-0.1 0.7v1.7q0 0.1 0.1 0.7 0 0.5 0 0.9v1.2q0 1 0.1 1.9 0.1 1 0.1 1.7v1.1q-0.2 0.6-0.4 0.7-0.1 0.2-0.4 0.2v-0.1q-1.6 0-5.6 0.2-3.9 0.2-6.2 0.2h-7v5.6q0.4 0 1.1 0 0.7 0.1 1 0.1 2 0 5.8-0.1 3.8-0.2 5.5-0.2h5.6q2.2 0 2.8 0.5 0.2 0.3 0.4 0.6v13.8q0 1-0.4 1.4-0.3 0.5-1.3 0.5h-43zm46.5-40.6v-15.6h50.6q0.7 0.1 0.8 0.5 0.2 0.4 0.2 1.2v13.9q-0.1 1-1.2 1h-12.4v39.9q0 0 0 0.2 0 0.2 0 0.2 0 0.1-0.1 0.2 0 0.1-0.1 0.2 0 0-0.1 0.1 0 0.2-0.1 0.2 0 0-0.2 0.1-0.1 0-0.2 0.1-0.1 0-0.2 0-0.2 0.1-0.4 0.1h-2.7q-5.6 0-5.6-0.3-0.3 0-1 0-0.7 0-1.1 0h-3.4q-1 0-2.9 0.1-1.8 0-2.9 0h-2.4l-1.8-1.2v-9.3q0.1-2.6 0.4-10.8 0.3-8.3 0.3-13v-1.1q0-0.4 0.1-1.1 0-0.8 0-1.1 0-0.4 0-1.6-0.1-1.2-0.1-1.5h-10.8q-1 0-1.8-0.4-0.9-0.3-0.9-1zm117.6 20.6q-0.7 6.5-3.4 11.5-2.7 5-6.9 8.2-4.2 3.1-9.6 4.7-5.4 1.6-11.7 1.6-5.9 0-10.8-1.2-4.8-1.3-8.2-3.4-3.3-2.2-5.9-5.2-2.6-3.1-4.1-6.3-1.5-3.2-2.4-7.1-1-3.8-1.3-7.1-0.3-3.4-0.3-6.9v-3.9q0.4-6.3 2.9-11.3 2.6-5.1 6.2-8.2 3.6-3.1 8.2-5.2 4.7-2 9-2.8 4.4-0.8 8.8-0.8 7 0 12.3 1.6 5.4 1.7 8.8 4.7 3.4 3.1 5.3 7 1.9 3.9 2.4 8.8v4.2q0 1.3-9.5 1.3-2.3 0-6.3 0-4-0.1-5.3-0.1-0.2 0-0.6 0-0.5 0.1-0.7 0.1-1.1 0-1.7-1-0.6-0.9-0.8-2.3-0.2-1.3-0.5-2.6-0.3-1.4-1.1-2.3-0.9-1-2.5-1-1.6 0-2.7 0.6-1.2 0.5-1.9 1.6-0.7 1.1-1.2 2.2-0.4 1.1-0.6 3-0.2 1.8-0.3 3 0 1.2-0.1 3.3 0 2-0.1 3 0 0.5-0.1 1.9 0 1.4 0 2.3 0 10.8 5.7 11.1 1.6 0 2.6-1.2 1-1.1 1.3-2.5 0.4-1.4 0.9-2.9 0.5-1.6 1-2.1h23.7q1.4 0.1 1.5 1.7zm28.2 21.6h-23.8v-57q0-0.3 0.7-0.6 0.6-0.3 0.7-0.4h23.4v56.4q-0.2 1-0.4 1.3-0.2 0.3-0.6 0.3zm4.8-42.2v-15.6h50.6q0.7 0.1 0.8 0.5 0.2 0.4 0.2 1.2v13.9q-0.1 1-1.2 1h-12.3v39.9q0 0-0.1 0.2 0 0.2 0 0.2 0 0.1-0.1 0.2 0 0.1-0.1 0.2 0 0 0 0.1-0.1 0.2-0.2 0.2 0 0-0.1 0.1-0.1 0-0.2 0.1-0.1 0-0.3 0-0.2 0.1-0.3 0.1h-2.8q-5.6 0-5.6-0.3-0.3 0-1 0-0.7 0-1.1 0h-3.4q-1 0-2.9 0.1-1.8 0-2.9 0h-2.4l-1.7-1.2v-9.3q0-2.6 0.3-10.8 0.4-8.3 0.4-13v-1.1q0-0.4 0-1.1 0-0.8 0-1.1 0-0.4 0-1.6 0-1.2 0-1.5h-10.9q-1 0-1.8-0.4-0.9-0.3-0.9-1zm52-16h22.9l6.9 21.4q3.3-8.8 6.1-17.6 0.1-0.3 0.5-1.3 0.5-0.9 0.6-1.5 0.3-1.1 4.7-1.1 0.3 0 0.8 0.1 0.5 0 0.9 0 7.1-0.1 15.3-0.2 1 0.2 1.5 2.2l-19.8 35.6 0.7 2.9q0 2.5 0.1 7.7 0.1 5.2 0.1 7.1v1.3q-0.2 0.7-0.7 1-0.5 0.4-1.3 0.6-0.9 0.1-1.6 0.1-0.7 0-1.9 0-1.3-0.1-1.7-0.1h-16.6l-1.4-1.8v-18.1l-10-21.4-4.7-6.5q-3.5-7.1-3.5-9.2 0-1.2 2.1-1.2z"/><path fill-rule="evenodd" class="a" d="m740.9 35.1c0 0.6 0.5 1.1 1.1 1.1q0.1 0 0.2-0.1v2.3q-0.1 0-0.2 0c-0.6 0-1.1 0.5-1.1 1.1 0 0.6 0.5 1.1 1.1 1.1q0.1 0 0.2 0v2.3q-0.1-0.1-0.2-0.1c-0.6 0-1.1 0.5-1.1 1.1 0 0.7 0.5 1.2 1.1 1.2q0.1-0.1 0.2-0.1v2.3q-0.1 0-0.2 0c-0.6 0-1.1 0.5-1.1 1.1 0 0.6 0.5 1.1 1.1 1.1q0.1 0 0.2 0v2.2q-0.1 0-0.2 0c-0.6 0-1.1 0.5-1.1 1.1 0 0.6 0.5 1.1 1.1 1.1q0.1 0 0.2 0v2.3q-0.1 0-0.2 0c-0.6 0-1.1 0.5-1.1 1.1 0 0.6 0.5 1.1 1.1 1.1q0.1 0 0.2 0v2.2c-7.3 0-13.2 5.9-13.2 13.2 0 7.2 5.9 13.1 13.2 13.1v2.3q-0.1 0-0.2 0c-0.6 0-1.1 0.5-1.1 1.1 0 0.6 0.5 1.1 1.1 1.1q0.1 0 0.2 0v2.2q-0.1 0-0.2 0c-0.6 0-1.1 0.5-1.1 1.1 0 0.6 0.5 1.1 1.1 1.1q0.1 0 0.2 0v2.3q-0.1 0-0.2 0c-0.6 0-1.1 0.5-1.1 1.1 0 0.6 0.5 1.1 1.1 1.1q0.1 0 0.2 0v2.2q-0.1 0-0.2 0c-0.6 0-1.1 0.5-1.1 1.1 0 0.6 0.5 1.1 1.1 1.1q0.1 0 0.2 0v2.3q-0.1-0.1-0.2-0.1c-0.6 0-1.1 0.5-1.1 1.2 0 0.6 0.5 1.1 1.1 1.1q0.1 0 0.2-0.1v2.3q-0.1 0-0.2 0c-0.6 0-1.1 0.5-1.1 1.1 0 0.6 0.5 1.1 1.1 1.1q0.1 0 0.2 0v2.3h-151.9v-2.3c0.6 0 1.1-0.5 1.1-1.1 0-0.6-0.5-1.1-1.1-1.1v-2.2c0.6 0 1.1-0.5 1.1-1.2 0-0.6-0.5-1.1-1.1-1.1v-2.2c0.6 0 1.1-0.5 1.1-1.1 0-0.6-0.5-1.1-1.1-1.1v-2.2c0.6 0 1.1-0.5 1.1-1.1 0-0.7-0.5-1.2-1.1-1.2v-2.2c0.6 0 1.1-0.5 1.1-1.1 0-0.6-0.5-1.1-1.1-1.1v-2.2c0.6 0 1.1-0.5 1.1-1.1 0-0.6-0.5-1.1-1.1-1.1v-2.3c7.3 0 13.2-5.9 13.2-13.1 0-7.3-5.9-13.2-13.2-13.2v-2.2c0.6 0 1.1-0.5 1.1-1.1 0-0.7-0.5-1.2-1.1-1.2v-2.2c0.6 0 1.1-0.5 1.1-1.1 0-0.6-0.5-1.1-1.1-1.1v-2.2c0.6 0 1.1-0.5 1.1-1.1 0-0.6-0.5-1.1-1.1-1.1v-2.3c0.6 0 1.1-0.5 1.1-1.1 0-0.6-0.5-1.1-1.1-1.1v-2.2c0.6 0 1.1-0.5 1.1-1.1 0-0.6-0.5-1.1-1.1-1.1v-2.3c0.6 0 1.1-0.5 1.1-1.1 0-0.6-0.5-1.1-1.1-1.1v-2.2h151.9v2.2q-0.1 0-0.2 0c-0.6 0-1.1 0.5-1.1 1.2zm-131.2 15h0.7v-3.7h-0.7zm0 5.6h0.7v-3.8h-0.7zm0 5.7h0.7v-3.8h-0.7zm0 5.7h0.7v-3.8h-0.7zm0 5.7h0.7v-3.8h-0.7zm0 5.7h0.7v-3.8h-0.7zm0 5.7h0.7v-3.8h-0.7zm0 5.7h0.7v-3.8h-0.7zm0 5.7h0.7v-3.8h-0.7zm0 5.6h0.7v-3.7h-0.7zm2.2 3.4h-1.5v-1.6h-0.7v2.2h2.2zm0-62.3h-2.2v2.2h0.7v-1.5h1.5zm5.6 62.3h-3.7v0.6h3.7zm0-62.3h-3.7v0.7h3.7zm5.6 62.2h-3.7v0.7h3.7zm0-62.3h-3.7v0.6h3.7zm5.7 62.3h-3.8v0.7h3.8zm0-62.3h-3.8v0.6h3.8zm5.6 62.3h-3.8v0.7h3.8zm0-62.3h-3.8v0.6h3.8zm5.6 62.3h-3.7v0.6h3.7zm0-62.2h-3.7v0.6h3.7zm5.6 62.3h-3.7v0.6h3.7zm0-62.2h-3.7v0.6h3.7zm5.6 62.3h-3.7v0.6h3.7zm0-62.3h-3.7v0.7h3.7zm5.7 62.3h-3.8v0.6h3.8zm0-62.3h-3.8v0.7h3.8zm5.6 62.2h-3.8v0.7h3.8zm0-62.3h-3.8v0.7h3.8zm5.6 62.2h-3.8v0.7h3.8zm0-62.3h-3.8v0.6h3.8zm5.6 62.3h-3.7v0.7h3.7zm0-62.3h-3.7v0.6h3.7zm5.6 62.3h-3.7v0.6h3.7zm0-62.2h-3.7v0.6h3.7zm5.6 62.3h-3.7v0.6h3.7zm0-62.2h-3.7v0.6h3.7zm5.7 62.3h-3.8v0.6h3.8zm0-62.3h-3.8v0.7h3.8zm5.6 62.3h-3.8v0.6h3.8zm0-62.3h-3.8v0.7h3.8zm5.6 62.2h-3.7v0.7h3.7zm0-62.3h-3.7v0.7h3.7zm5.6 62.2h-3.7v0.7h3.7zm0-62.3h-3.7v0.6h3.7zm5.6 62.3h-3.7v0.7h3.7zm0-62.3h-3.7v0.6h3.7zm5.6 62.3h-3.7v0.6h3.7zm0-62.2h-3.7v0.6h3.7zm4.1 60.8h-0.7v1.5h-1.5v0.6h2.2zm0-5.6h-0.7v3.7h0.7zm0-5.6h-0.7v3.8h0.7zm0-5.7h-0.7v3.8h0.7zm0-5.7h-0.7v3.8h0.7zm0-5.7h-0.7v3.8h0.7zm0-5.7h-0.7v3.8h0.7zm0-5.7h-0.7v3.8h0.7zm0-5.7h-0.7v3.8h0.7zm0-5.7h-0.7v3.8h0.7zm0-5.7h-0.7v3.8h0.7zm0-4h-2.2v0.6h1.5v1.5h0.7z"/><path class="b" d="m43 31.7h699.2v84.2h-699.2z"/></svg>